<?xml version="1.0" standalone="no"?>
<!DOCTYPE svg PUBLIC "-//W3C//DTD SVG 20010904//EN"
 "http://www.w3.org/TR/2001/REC-SVG-20010904/DTD/svg10.dtd">
<svg version="1.0" xmlns="http://www.w3.org/2000/svg"
 width="300.000000pt" height="300.000000pt" viewBox="0 0 300.000000 300.000000"
 preserveAspectRatio="xMidYMid meet">
<metadata>
Created by potrace 1.16, written by Peter Selinger 2001-2019
</metadata>
<g transform="translate(0.000000,300.000000) scale(0.100000,-0.100000)"
fill="#000000" stroke="none">
<path d="M1230 2645 c-9 -27 -17 -35 -35 -35 -38 0 -55 -11 -55 -35 0 -13 11
-32 24 -42 23 -17 24 -20 14 -81 -8 -44 -17 -66 -29 -73 -16 -8 -19 -22 -19
-100 l0 -90 -35 -14 c-77 -33 -136 -107 -149 -191 l-7 -40 -36 30 c-19 17 -59
51 -87 76 -28 25 -62 52 -76 62 -19 12 -22 19 -14 28 9 9 17 9 32 1 15 -8 23
-7 34 7 26 30 29 41 18 61 -8 16 -6 21 10 26 29 9 29 75 0 82 -23 6 -25 14 -9
30 9 9 21 4 48 -17 44 -36 127 -55 169 -39 76 29 132 134 111 211 -11 44 -59
102 -100 124 -35 18 -100 18 -142 0 -72 -29 -120 -124 -100 -197 10 -39 10
-39 -9 -22 -16 14 -23 15 -39 5 -17 -11 -21 -9 -29 13 -9 23 -15 26 -47 23
-31 -2 -39 -7 -41 -26 -2 -16 -8 -22 -18 -18 -8 3 -21 9 -29 12 -21 8 -71 -44
-56 -59 17 -17 13 -34 -9 -40 -28 -7 -28 -67 0 -74 23 -6 26 -23 8 -41 -9 -9
-5 -19 17 -42 19 -20 32 -27 39 -20 18 18 41 11 53 -17 7 -15 12 -27 10 -28
-1 -1 -25 1 -53 3 -48 3 -52 6 -58 33 -9 46 -33 35 -47 -21 -14 -53 -24 -62
-34 -31 -3 11 -17 27 -32 36 -22 15 -29 15 -51 4 -13 -8 -31 -24 -39 -36 -14
-20 -13 -27 1 -58 25 -52 89 -62 112 -17 19 38 24 37 24 -4 0 -40 -1 -40 -49
-53 -88 -22 -141 -108 -121 -195 9 -43 62 -104 97 -112 26 -7 28 -12 9 -37
-12 -15 -14 -16 -20 -2 -3 8 -15 15 -26 15 -15 0 -20 -7 -20 -25 0 -27 31 -48
38 -27 6 18 22 14 22 -5 0 -9 8 -25 17 -36 14 -15 15 -21 5 -24 -26 -10 -70
-53 -82 -83 -31 -75 31 -160 116 -160 30 0 56 7 74 20 24 17 29 18 40 5 10
-12 38 -15 126 -15 90 0 114 -3 114 -14 0 -10 -11 -12 -45 -8 -38 4 -50 1 -71
-19 -13 -12 -29 -40 -36 -61 -7 -25 -17 -38 -29 -38 -13 0 -19 -10 -22 -32
l-4 -33 -1 33 c-1 19 -7 32 -15 32 -8 0 -19 18 -26 40 -6 22 -21 49 -33 60
-46 43 -118 11 -139 -61 -9 -27 -18 -39 -31 -39 -12 0 -18 -8 -19 -22 0 -13
-6 -83 -12 -156 -7 -73 -11 -135 -8 -138 2 -2 135 -4 294 -4 280 0 289 1 294
20 7 25 9 25 40 0 54 -42 151 -12 179 55 20 49 17 87 -9 126 -47 71 -126 85
-193 34 l-34 -26 0 24 c0 21 6 25 42 31 29 5 51 17 77 44 l36 37 32 -32 31
-33 204 0 c167 0 199 -2 179 -13 -39 -20 -47 -41 -28 -71 14 -21 25 -26 57
-26 68 0 90 66 32 99 -12 7 43 10 182 11 l199 0 -7 -125 -6 -125 25 0 c14 0
34 -9 45 -20 26 -26 70 -26 103 0 36 29 148 29 184 0 33 -25 63 -25 96 0 14
11 34 20 44 20 10 0 24 5 31 12 15 15 16 64 2 73 -5 3 -10 19 -10 36 0 18 -7
33 -20 41 -29 19 -24 29 7 17 32 -12 86 -4 119 17 47 31 67 113 40 164 -11 23
-10 27 12 46 33 27 33 71 -1 100 -22 19 -24 24 -12 34 8 7 20 27 27 46 14 40
19 41 43 14 24 -26 47 -25 73 3 27 29 28 61 2 87 -25 25 -48 25 -75 0 l-21
-20 -11 30 c-11 28 -10 30 13 30 60 0 88 90 39 128 -30 24 -31 28 -5 35 12 3
20 14 20 25 0 12 5 24 10 27 13 8 13 38 -1 68 -11 24 -71 53 -89 42 -5 -3 -10
2 -10 12 0 10 -14 35 -31 56 l-31 37 26 31 c55 65 55 153 0 218 -44 52 -130
65 -202 28 l-29 -14 -5 136 c-3 79 -11 148 -18 164 -12 25 -18 27 -71 27 -82
0 -87 -9 -95 -197 l-7 -151 26 -26 c28 -28 93 -36 115 -14 17 17 20 8 10 -31
l-9 -33 -20 21 c-23 25 -71 28 -93 6 -20 -20 -21 -20 -22 16 -1 21 -12 42 -37
67 -33 32 -42 36 -91 36 -67 1 -105 -24 -124 -80 -16 -48 -18 -50 -37 -34 -21
18 -145 25 -187 11 -19 -6 -45 -21 -58 -33 -18 -17 -25 -19 -28 -8 -3 7 -16
24 -30 37 -19 18 -21 23 -8 23 51 0 76 95 36 138 -26 27 -94 30 -122 5 -17
-15 -18 -15 -18 10 0 19 -6 26 -22 29 -15 2 -22 11 -25 33 -2 17 -10 35 -17
40 -7 6 -16 22 -19 36 -6 22 -2 30 18 43 43 28 27 76 -25 76 -21 0 -29 7 -39
35 -10 29 -17 35 -41 35 -24 0 -30 -6 -40 -35z m-178 -56 c109 -78 53 -269
-78 -269 -51 0 -88 16 -123 54 -35 37 -41 127 -11 174 42 68 145 88 212 41z
m-355 -179 c6 -23 41 -36 56 -21 14 14 39 -19 27 -34 -14 -17 0 -53 21 -58 22
-6 26 -37 4 -37 -22 0 -39 -38 -24 -56 16 -20 -5 -44 -22 -27 -16 16 -73 -13
-65 -32 3 -8 1 -17 -4 -20 -9 -6 -36 17 -42 37 -2 6 -23 12 -45 12 -50 1 -58
8 -41 35 11 19 10 24 -15 47 l-28 26 25 23 c28 26 32 40 16 50 -18 11 10 36
31 30 29 -9 59 4 59 26 0 26 40 26 47 -1z m1573 -9 c0 -10 -3 -46 -6 -80 l-7
-61 -40 0 c-44 0 -42 -9 6 -27 32 -11 32 -11 5 -12 -47 -2 -58 21 -58 115 l0
84 50 0 c42 0 50 -3 50 -19z m225 -135 c18 -8 41 -26 51 -41 16 -25 16 -29 0
-81 -9 -30 -26 -63 -37 -73 -26 -24 -75 -33 -128 -25 -33 5 -45 13 -58 37 -35
68 7 165 82 186 43 13 52 13 90 -3z m-433 -63 c39 -35 12 -104 -47 -119 -39
-10 -65 19 -65 71 0 22 5 46 12 53 17 17 78 15 100 -5z m-250 -43 c53 -15 127
-86 140 -135 15 -55 14 -125 -3 -160 -12 -24 -22 -31 -57 -36 -23 -3 -42 -4
-42 -3 0 2 11 20 25 40 44 65 37 69 -111 72 -105 2 -133 0 -143 -12 -14 -17
-3 -45 33 -84 l21 -23 -50 3 c-43 3 -51 7 -67 34 -44 75 -32 177 29 239 64 66
140 88 225 65z m-565 -11 c15 -5 43 -24 61 -42 29 -28 32 -36 32 -94 0 -71
-16 -118 -50 -148 l-22 -20 33 -6 c31 -6 -102 -12 -240 -11 -49 0 -56 3 -70
28 -9 18 -15 55 -16 95 0 56 4 73 30 114 50 81 154 117 242 84z m-494 -86
c163 -127 197 -167 197 -238 0 -14 3 -25 8 -25 4 0 248 -2 543 -4 375 -3 543
-7 558 -15 31 -17 37 -57 17 -131 -42 -163 -79 -290 -82 -287 -5 4 6 57 36
176 34 138 17 114 -29 -43 -52 -173 -79 -235 -115 -264 l-27 -21 33 -4 c18 -2
-152 -5 -379 -5 l-412 -2 -25 23 c-22 18 -37 63 -91 262 -36 132 -65 246 -65
253 0 7 -9 42 -21 77 -18 56 -29 73 -82 119 -59 53 -72 61 -129 85 -30 11 -37
38 -16 59 19 19 42 14 81 -15z m1352 -88 c32 -31 31 -56 -1 -94 -45 -54 -104
-29 -104 44 0 70 58 97 105 50z m-1600 -59 c44 -19 75 -69 75 -121 -1 -31 -9
-49 -35 -80 -34 -40 -40 -34 -15 17 23 48 9 60 -68 57 -37 -2 -73 -5 -79 -7
-21 -7 -15 -38 14 -66 22 -22 35 -27 64 -24 22 2 37 -1 36 -7 -3 -16 -20 -25
-50 -25 -68 0 -127 63 -127 135 0 52 17 84 59 112 39 26 77 29 126 9z m2005
-176 l0 -60 -80 0 -80 0 0 42 c0 62 20 78 97 78 l63 0 0 -60z m-1643 -16 c38
-7 60 -137 28 -164 -13 -11 -15 -4 -15 54 0 36 -3 66 -7 67 -30 3 -250 4 -260
1 -15 -5 -18 -92 -3 -92 6 0 10 16 10 35 l0 35 119 0 119 0 1 -56 c0 -35 -5
-65 -14 -78 -19 -26 -20 -82 -2 -89 9 -3 12 -17 9 -40 l-4 -35 -81 -7 c-45 -4
-95 -5 -112 -3 -29 3 -30 4 -33 66 -4 84 -22 79 -22 -7 l0 -69 129 -7 c71 -4
134 -4 140 0 6 3 11 24 11 46 0 24 4 38 10 34 6 -3 10 -24 10 -45 0 -36 -4
-41 -40 -60 -32 -16 -59 -20 -146 -20 -152 0 -144 -12 -144 220 0 211 1 215
75 223 43 4 185 -1 222 -9z m1270 -36 c-2 -22 1 -23 68 -23 65 0 70 1 73 23 2
13 9 21 15 19 9 -3 11 -42 10 -137 -1 -73 -4 -134 -6 -136 -7 -7 -229 -19
-233 -12 -4 6 17 100 57 251 11 41 20 49 16 15z m-1624 -228 l25 -20 -17 -49
c-25 -73 -37 -83 -90 -79 -39 3 -48 8 -64 36 -17 28 -17 37 -7 63 27 65 102
89 153 49z m1730 -120 c34 -38 38 -104 7 -143 -11 -14 -16 -28 -11 -31 14 -9
51 43 51 71 0 23 1 23 22 9 12 -9 31 -16 41 -16 10 0 17 -3 15 -7 -3 -5 -11
-23 -18 -40 -14 -32 -17 -33 -71 -33 -48 0 -57 3 -62 20 -4 16 -14 20 -54 22
-26 1 -59 2 -72 3 -40 1 -54 71 -26 125 35 67 127 77 178 20z m276 -105 c38
-19 41 -31 24 -87 -15 -53 -38 -73 -95 -81 -33 -5 -40 -2 -56 21 -28 41 -32
59 -20 93 12 34 60 69 96 69 13 0 36 -7 51 -15z m-1412 -47 c45 -21 57 -22
440 -22 267 -1 393 -4 393 -12 0 -32 -22 -34 -425 -34 l-401 0 -26 28 c-24 26
-43 62 -33 62 3 0 26 -10 52 -22z m1059 -24 c20 -5 20 -7 5 -100 l-15 -95 -88
7 c-86 6 -88 6 -96 -17 -8 -21 -10 -20 -16 14 -6 35 -4 74 10 165 l5 32 87 0
c48 0 96 -3 108 -6z m-1484 -122 c27 -3 42 18 36 49 -2 9 9 15 30 17 29 3 32
1 32 -25 0 -16 5 -34 12 -41 17 -17 48 4 48 33 0 14 5 25 10 25 6 0 10 -31 10
-74 0 -40 2 -95 5 -122 3 -36 2 -42 -4 -24 -5 14 -10 52 -11 85 l-3 60 -9 -70
c-5 -38 -10 -79 -12 -90 -3 -21 -27 -31 -53 -21 -14 6 -14 8 3 21 18 14 17 14
-11 14 -16 0 -39 -4 -50 -9 -19 -8 -19 -8 5 -18 21 -9 14 -11 -42 -11 -38 -1
-68 2 -68 7 0 35 22 240 27 252 4 10 9 2 12 -20 5 -29 11 -36 33 -38z"/>
<path d="M875 2441 c-3 -5 0 -21 7 -36 21 -46 93 -69 139 -45 22 13 52 67 44
80 -8 13 -182 13 -190 1z"/>
<path d="M613 2346 c-22 -19 -28 -32 -28 -66 0 -73 67 -110 135 -75 35 18 49
70 30 116 -23 54 -88 67 -137 25z"/>
<path d="M1317 1453 c-17 -16 -4 -56 31 -95 69 -76 163 -98 252 -57 56 25 77
44 102 92 32 64 24 67 -192 67 -102 0 -190 -3 -193 -7z m363 -38 c0 -8 -15
-29 -34 -48 -57 -57 -152 -70 -227 -32 -28 15 -79 70 -79 86 0 5 73 9 170 9
143 0 170 -2 170 -15z"/>
<path d="M2148 1606 c-22 -16 -40 -64 -33 -86 10 -30 52 -61 84 -62 73 -2 112
96 55 141 -30 24 -80 27 -106 7z"/>
<path d="M1615 2674 c-5 -1 -22 -5 -36 -8 -37 -8 -87 -63 -100 -110 -15 -56
-4 -100 39 -145 67 -70 148 -72 220 -7 32 30 36 40 40 94 4 50 0 67 -18 97
-12 20 -33 43 -46 52 -24 16 -82 32 -99 27z m85 -42 c37 -27 72 -101 64 -137
-21 -103 -127 -146 -211 -85 -71 52 -81 126 -26 191 50 59 117 71 173 31z"/>
<path d="M1585 2626 c-62 -27 -90 -95 -65 -155 14 -35 76 -81 109 -81 58 0
121 65 121 125 0 40 -32 90 -69 110 -36 18 -56 18 -96 1z"/>
<path d="M1943 2654 c-16 -7 -17 -38 -3 -65 10 -18 7 -19 -45 -19 -93 0 -95
-3 -96 -133 -1 -92 -3 -107 -12 -84 -13 34 -47 34 -62 0 -5 -13 -20 -23 -35
-25 -32 -4 -41 -43 -11 -53 14 -4 19 -14 18 -33 -2 -21 3 -28 21 -30 13 -2 30
2 38 9 11 9 18 9 32 -3 24 -21 42 -12 42 22 0 16 7 30 15 34 8 3 15 12 15 21
0 13 19 15 123 15 82 0 127 4 135 12 8 8 12 49 12 118 0 69 -4 110 -12 118 -7
7 -40 12 -76 12 -46 0 -63 3 -60 13 3 6 18 14 34 17 35 6 49 50 16 50 -11 0
-32 2 -48 5 -16 2 -35 2 -41 -1z m157 -239 c0 -32 -4 -45 -14 -45 -8 0 -16 -5
-18 -11 -2 -6 -52 -13 -120 -17 l-116 -7 -6 53 c-4 29 -4 58 -1 63 4 5 67 9
141 9 l134 0 0 -45z"/>
<path d="M494 2625 c-91 -38 -83 -168 11 -194 48 -13 102 5 121 40 48 93 -39
194 -132 154z"/>
<path d="M1073 2274 c20 -39 7 -74 -27 -74 -18 0 -30 9 -40 28 -8 16 -29 33
-51 41 -47 17 -86 2 -110 -43 -15 -27 -16 -38 -6 -68 16 -48 63 -92 90 -83 31
9 81 55 91 81 6 14 19 24 37 26 40 4 61 45 42 83 -8 16 -20 30 -27 33 -11 3
-11 -2 1 -24z"/>
<path d="M1234 1060 c-11 -4 -34 -24 -52 -44 -25 -29 -32 -46 -32 -80 0 -122
140 -178 227 -91 28 28 33 40 33 80 0 101 -90 170 -176 135z m112 -54 c90 -90
-14 -223 -122 -157 -43 26 -61 79 -41 118 41 78 108 94 163 39z"/>
<path d="M1723 1055 c-97 -42 -96 -193 2 -239 52 -25 99 -14 147 34 32 32 38
44 38 80 0 54 -29 103 -74 124 -41 19 -71 20 -113 1z m123 -49 c57 -57 40
-135 -35 -166 -63 -26 -131 22 -131 92 0 49 13 73 48 92 45 25 80 20 118 -18z"/>
<path d="M1485 945 c-30 -30 -32 -64 -4 -99 34 -44 99 -33 128 22 15 29 7 56
-26 82 -34 27 -69 25 -98 -5z"/>
<path d="M585 733 c-48 -10 -79 -29 -106 -66 -55 -76 -34 -178 49 -233 24 -16
54 -24 115 -28 45 -4 471 -5 947 -4 l865 3 33 24 c74 57 92 165 38 236 -51 66
9 62 -1001 67 -506 3 -929 3 -940 1z m1887 -55 c43 -33 63 -83 48 -122 -25
-67 -81 -95 -192 -98 l-83 -2 95 -5 c80 -5 59 -7 -134 -13 -290 -10 -1223 -9
-1296 2 -30 4 -47 8 -37 9 9 0 17 6 17 11 0 12 -40 14 -177 10 -132 -3 -198
12 -218 51 -20 37 -19 99 1 128 9 12 30 31 48 42 30 19 59 19 962 17 l931 -3
35 -27z"/>
<path d="M2249 621 c-34 -35 -36 -59 -8 -94 18 -24 27 -26 79 -26 64 1 77 9
86 56 4 23 0 36 -21 61 -37 44 -93 45 -136 3z"/>
</g>
</svg>
